<svg version="1.2" baseProfile="tiny-ps" xmlns="http://www.w3.org/2000/svg" viewBox="0 0 24 24" width="24" height="24">
	<title>delete-svg</title>
	<style>
		tspan { white-space:pre }
		.shp0 { fill: #349cdb } 
	</style>
	<path id="Layer" fill-rule="evenodd" class="shp0" d="M9.83 5L20 5C20.53 5 21.04 5.21 21.41 5.59C21.79 5.96 22 6.47 22 7L22 17C22 17.53 21.79 18.04 21.41 18.41C21.04 18.79 20.53 19 20 19L9.83 19C9.3 19 8.79 18.79 8.41 18.41L2.71 12.71C2.52 12.52 2.41 12.27 2.41 12C2.41 11.73 2.52 11.48 2.71 11.29L8.41 5.59C8.79 5.21 9.3 5 9.83 5ZM16.41 12L17.83 10.59C18.01 10.4 18.11 10.14 18.11 9.88C18.11 9.62 18 9.37 17.82 9.18C17.63 9 17.38 8.89 17.12 8.89C16.86 8.89 16.6 8.99 16.41 9.17L15 10.59L13.59 9.17C13.49 9.08 13.38 9 13.26 8.95C13.14 8.9 13.01 8.87 12.88 8.87C12.74 8.87 12.61 8.89 12.49 8.94C12.37 8.99 12.25 9.07 12.16 9.16C12.07 9.25 11.99 9.37 11.94 9.49C11.89 9.61 11.87 9.74 11.87 9.88C11.87 10.01 11.9 10.14 11.95 10.26C12 10.38 12.08 10.49 12.17 10.59L13.59 12L12.17 13.41C12.08 13.51 12 13.62 11.95 13.74C11.9 13.86 11.87 13.99 11.87 14.12C11.87 14.26 11.89 14.39 11.94 14.51C11.99 14.63 12.07 14.75 12.16 14.84C12.25 14.93 12.37 15.01 12.49 15.06C12.61 15.11 12.74 15.13 12.88 15.13C13.01 15.13 13.14 15.1 13.26 15.05C13.38 15 13.49 14.92 13.59 14.83L15 13.41L16.41 14.83C16.51 14.92 16.62 15 16.74 15.05C16.86 15.1 16.99 15.13 17.12 15.13C17.26 15.13 17.39 15.11 17.51 15.06C17.63 15.01 17.75 14.93 17.84 14.84C17.93 14.75 18.01 14.63 18.06 14.51C18.11 14.39 18.13 14.26 18.13 14.12C18.13 13.99 18.1 13.86 18.05 13.74C18 13.62 17.92 13.51 17.83 13.41L16.41 12Z" />
</svg>